<svg width="187" height="22" viewBox="0 0 187 22" fill="none" xmlns="http://www.w3.org/2000/svg">
<path d="M186.151 0.399417C185.96 0.896354 185.702 1.62265 185.377 2.57829C185.052 3.51483 184.746 4.73805 184.46 6.24798H183.886C183.943 5.9804 183.982 5.70326 184.001 5.41656C184.039 5.12987 184.058 4.87185 184.058 4.64249C184.058 3.89709 183.896 3.24725 183.571 2.69297C183.265 2.11958 182.806 1.67998 182.195 1.37418C181.602 1.04926 180.857 0.886797 179.958 0.886797C179.003 0.886797 178.181 1.13527 177.493 1.6322C176.824 2.11003 176.489 2.90321 176.489 4.01176C176.489 4.68072 176.652 5.33056 176.977 5.96128C177.302 6.5729 177.713 7.17496 178.21 7.76746C178.726 8.35996 179.27 8.96202 179.844 9.57363C180.417 10.1661 180.962 10.7777 181.478 11.4085C181.994 12.0201 182.414 12.6699 182.739 13.358C183.064 14.0461 183.227 14.7819 183.227 15.5655C183.227 16.5976 182.969 17.4768 182.453 18.2031C181.956 18.9294 181.306 19.5219 180.503 19.9806C179.7 20.4393 178.84 20.7738 177.923 20.9841C177.005 21.1943 176.136 21.2994 175.314 21.2994C174.416 21.2994 173.67 21.2421 173.078 21.1274C172.504 21.0127 172.007 20.8598 171.587 20.6687C171.166 20.4585 170.756 20.2291 170.354 19.9806C170.144 19.8468 169.953 19.7417 169.781 19.6653C169.609 19.5888 169.465 19.5506 169.351 19.5506C169.102 19.5506 168.902 19.6653 168.749 19.8946C168.596 20.124 168.395 20.5253 168.147 21.0987H167.573C167.745 20.6782 167.927 20.1909 168.118 19.6366C168.309 19.0823 168.519 18.3751 168.749 17.5151C168.978 16.6359 169.236 15.5369 169.523 14.2181H170.096C170.001 14.543 169.924 14.9157 169.867 15.3362C169.829 15.7376 169.819 16.1198 169.838 16.483C169.895 17.84 170.316 18.8816 171.1 19.6079C171.902 20.3151 173.04 20.6687 174.511 20.6687C175.811 20.6687 176.747 20.4011 177.321 19.8659C177.913 19.3308 178.21 18.5949 178.21 17.6584C178.21 16.8557 178.057 16.1198 177.751 15.4509C177.464 14.7819 177.082 14.1512 176.604 13.5587C176.145 12.9662 175.658 12.3928 175.142 11.8385C174.626 11.2651 174.129 10.6822 173.651 10.0897C173.192 9.49718 172.82 8.8569 172.533 8.16883C172.246 7.48076 172.103 6.73536 172.103 5.93261C172.103 4.95785 172.313 4.11688 172.734 3.40971C173.154 2.68341 173.718 2.08136 174.425 1.60353C175.132 1.12571 175.897 0.77212 176.719 0.542764C177.541 0.313408 178.353 0.19873 179.156 0.19873C180.283 0.19873 181.201 0.342078 181.908 0.628773C182.615 0.896354 183.208 1.17349 183.685 1.46018C183.857 1.57486 184.029 1.67998 184.202 1.77555C184.393 1.87111 184.536 1.91889 184.632 1.91889C184.899 1.91889 185.214 1.4124 185.578 0.399417H186.151Z" fill="white"/>
<path d="M167.931 7.45209C167.931 8.69443 167.75 9.95588 167.387 11.2365C167.024 12.517 166.46 13.7307 165.695 14.8775C164.95 16.0242 164.013 17.0563 162.886 17.9738C161.777 18.8721 160.458 19.5888 158.929 20.124C157.419 20.64 155.709 20.898 153.797 20.898C153.492 20.898 153.119 20.8885 152.679 20.8694C152.259 20.8503 151.781 20.8407 151.246 20.8407C150.711 20.8216 150.118 20.812 149.468 20.812C149.029 20.812 148.532 20.8216 147.978 20.8407C147.442 20.8407 146.917 20.8503 146.401 20.8694C145.904 20.8694 145.493 20.8789 145.168 20.898L145.254 20.3247C145.866 20.2864 146.343 20.21 146.687 20.0953C147.051 19.9806 147.337 19.7513 147.548 19.4072C147.758 19.0632 147.949 18.5472 148.121 17.8591L151.877 3.63905C152.03 3.08478 152.096 2.63562 152.077 2.29159C152.077 1.92845 151.934 1.66086 151.647 1.48885C151.38 1.31683 150.902 1.21171 150.214 1.17349L150.3 0.600098C150.644 0.61921 151.083 0.638323 151.619 0.657435C152.154 0.676548 152.718 0.686105 153.31 0.686105C153.922 0.686105 154.486 0.686105 155.002 0.686105C155.346 0.666992 155.785 0.657435 156.32 0.657435C156.856 0.638323 157.391 0.628767 157.926 0.628767C158.461 0.609654 158.91 0.600098 159.273 0.600098C162.045 0.600098 164.176 1.17349 165.667 2.32026C167.177 3.46704 167.931 5.17765 167.931 7.45209ZM153.797 20.382C155.021 20.382 156.129 20.1144 157.123 19.5793C158.136 19.0441 159.025 18.3178 159.789 17.4004C160.554 16.4638 161.194 15.4031 161.71 14.2181C162.226 13.0331 162.618 11.7907 162.886 10.491C163.153 9.17225 163.287 7.85346 163.287 6.53467C163.287 4.77627 162.924 3.43837 162.198 2.52095C161.471 1.58441 160.286 1.11615 158.643 1.11615C158.165 1.11615 157.802 1.18304 157.553 1.31683C157.305 1.43151 157.104 1.66087 156.951 2.0049C156.798 2.34893 156.626 2.87454 156.435 3.58172L152.679 17.9164C152.526 18.528 152.431 19.0154 152.393 19.3786C152.354 19.7417 152.431 19.9997 152.622 20.1526C152.832 20.3055 153.224 20.382 153.797 20.382Z" fill="white"/>
<path d="M145.813 7.45209C145.813 8.69443 145.632 9.95588 145.269 11.2365C144.905 12.517 144.342 13.7307 143.577 14.8775C142.832 16.0242 141.895 17.0563 140.768 17.9738C139.659 18.8721 138.34 19.5888 136.811 20.124C135.301 20.64 133.591 20.898 131.679 20.898C131.373 20.898 131.001 20.8885 130.561 20.8694C130.141 20.8503 129.663 20.8407 129.128 20.8407C128.593 20.8216 128 20.812 127.35 20.812C126.911 20.812 126.414 20.8216 125.859 20.8407C125.324 20.8407 124.799 20.8503 124.283 20.8694C123.786 20.8694 123.375 20.8789 123.05 20.898L123.136 20.3247C123.747 20.2864 124.225 20.21 124.569 20.0953C124.932 19.9806 125.219 19.7513 125.429 19.4072C125.64 19.0632 125.831 18.5472 126.003 17.8591L129.758 3.63905C129.911 3.08478 129.978 2.63562 129.959 2.29159C129.959 1.92845 129.816 1.66086 129.529 1.48885C129.262 1.31683 128.784 1.21171 128.096 1.17349L128.182 0.600098C128.526 0.61921 128.965 0.638323 129.5 0.657435C130.036 0.676548 130.599 0.686105 131.192 0.686105C131.804 0.686105 132.367 0.686105 132.883 0.686105C133.227 0.666992 133.667 0.657435 134.202 0.657435C134.737 0.638323 135.273 0.628767 135.808 0.628767C136.343 0.609654 136.792 0.600098 137.155 0.600098C139.927 0.600098 142.058 1.17349 143.548 2.32026C145.058 3.46704 145.813 5.17765 145.813 7.45209ZM131.679 20.382C132.903 20.382 134.011 20.1144 135.005 19.5793C136.018 19.0441 136.907 18.3178 137.671 17.4004C138.436 16.4638 139.076 15.4031 139.592 14.2181C140.108 13.0331 140.5 11.7907 140.768 10.491C141.035 9.17225 141.169 7.85346 141.169 6.53467C141.169 4.77627 140.806 3.43837 140.079 2.52095C139.353 1.58441 138.168 1.11615 136.524 1.11615C136.047 1.11615 135.683 1.18304 135.435 1.31683C135.187 1.43151 134.986 1.66087 134.833 2.0049C134.68 2.34893 134.508 2.87454 134.317 3.58172L130.561 17.9164C130.408 18.528 130.313 19.0154 130.274 19.3786C130.236 19.7417 130.313 19.9997 130.504 20.1526C130.714 20.3055 131.106 20.382 131.679 20.382Z" fill="white"/>
<path d="M111.601 20.898V2.09082H122.438V4.09768H113.98V10.0036H121.119V12.0391H113.98V18.8624H122.724V20.898H111.601Z" fill="white"/>
<path d="M100.13 20.898V4.09768H94.4531V2.09082H108.214V4.09768H102.538V20.898H100.13Z" fill="white"/>
<path d="M81.1113 20.898V2.09082H91.9484V4.09768H83.4909V10.0036H90.6296V12.0391H83.4909V18.8624H92.2351V20.898H81.1113Z" fill="white"/>
<path d="M64.7891 20.898V2.09082H70.6663C71.9469 2.09082 73.0841 2.26284 74.078 2.60687C75.0718 2.93179 75.8459 3.48606 76.4002 4.2697C76.9736 5.03421 77.2603 6.06631 77.2603 7.36599C77.2603 8.81858 76.878 9.99402 76.1135 10.8923C75.349 11.7715 74.3169 12.3736 73.0172 12.6985L77.805 20.898H75.11L70.5803 12.9565H67.1686V20.898H64.7891ZM67.1686 11.007H70.3223C71.794 11.007 72.9216 10.7108 73.7053 10.1183C74.4889 9.50664 74.8807 8.58922 74.8807 7.36599C74.8807 6.12365 74.4889 5.25401 73.7053 4.75708C72.9216 4.26014 71.794 4.01167 70.3223 4.01167H67.1686V11.007Z" fill="white"/>
<path d="M49.6699 20.898V2.09082H60.507V4.09768H52.0495V10.0036H59.1882V12.0391H52.0495V18.8624H60.7937V20.898H49.6699Z" fill="white"/>
<path d="M32.0322 20.898V2.09082H36.734C39.6392 2.09082 41.8467 2.90312 43.3566 4.52772C44.8666 6.13321 45.6215 8.42676 45.6215 11.4084C45.6215 14.4091 44.8666 16.7409 43.3566 18.4037C41.8658 20.0665 39.6965 20.898 36.8487 20.898H32.0322ZM34.4118 18.9484H36.562C38.76 18.9484 40.4037 18.289 41.4931 16.9702C42.6017 15.6323 43.156 13.7784 43.156 11.4084C43.156 9.03838 42.6017 7.22265 41.4931 5.96119C40.4037 4.68062 38.76 4.04034 36.562 4.04034H34.4118V18.9484Z" fill="white"/>
<path d="M18.0889 20.898V2.09082H20.4684V18.8624H28.6966V20.898H18.0889Z" fill="white"/>
<path d="M5.73388 10.3763L4.84513 13.2432H10.493L9.60426 10.3763C9.26022 9.32507 8.9353 8.28341 8.62949 7.25132C8.32369 6.2001 8.01788 5.12978 7.71207 4.04034H7.5974C7.3107 5.12978 7.01445 6.2001 6.70864 7.25132C6.40284 8.28341 6.07792 9.32507 5.73388 10.3763ZM0 20.898L6.36461 2.09082H9.05954L15.4241 20.898H12.8726L11.0951 15.1641H4.24307L2.4369 20.898H0Z" fill="white"/>
</svg>
